<svg width="101" height="101" viewBox="0 0 101 101" fill="none" xmlns="http://www.w3.org/2000/svg">
<mask id="mask0_1_1131" style="mask-type:alpha" maskUnits="userSpaceOnUse" x="0" y="0" width="101" height="101">
<rect width="100.877" height="100.877" fill="#D9D9D9"/>
</mask>
<g mask="url(#mask0_1_1131)">
<path d="M44.1476 69.3668L73.7802 39.7342L67.8957 33.8497L44.1476 57.5978L32.1684 45.6187L26.2839 51.5032L44.1476 69.3668ZM50.0321 92.0641C44.2176 92.0641 38.7535 90.9608 33.6396 88.7541C28.5257 86.5474 24.0773 83.5526 20.2944 79.7698C16.5115 75.9869 13.5167 71.5385 11.31 66.4246C9.10334 61.3107 8 55.8465 8 50.0321C8 44.2176 9.10334 38.7535 11.31 33.6396C13.5167 28.5257 16.5115 24.0773 20.2944 20.2944C24.0773 16.5115 28.5257 13.5167 33.6396 11.31C38.7535 9.10334 44.2176 8 50.0321 8C55.8465 8 61.3107 9.10334 66.4246 11.31C71.5385 13.5167 75.9869 16.5115 79.7698 20.2944C83.5526 24.0773 86.5474 28.5257 88.7541 33.6396C90.9608 38.7535 92.0641 44.2176 92.0641 50.0321C92.0641 55.8465 90.9608 61.3107 88.7541 66.4246C86.5474 71.5385 83.5526 75.9869 79.7698 79.7698C75.9869 83.5526 71.5385 86.5474 66.4246 88.7541C61.3107 90.9608 55.8465 92.0641 50.0321 92.0641ZM50.0321 83.6577C59.4192 83.6577 67.3703 80.4002 73.8853 73.8853C80.4002 67.3703 83.6577 59.4192 83.6577 50.0321C83.6577 40.6449 80.4002 32.6938 73.8853 26.1789C67.3703 19.6639 59.4192 16.4064 50.0321 16.4064C40.6449 16.4064 32.6938 19.6639 26.1789 26.1789C19.6639 32.6938 16.4064 40.6449 16.4064 50.0321C16.4064 59.4192 19.6639 67.3703 26.1789 73.8853C32.6938 80.4002 40.6449 83.6577 50.0321 83.6577Z" fill="#43D649"/>
</g>
</svg>
