<svg width="20" height="24" viewBox="0 0 20 24" fill="none" xmlns="http://www.w3.org/2000/svg">
<path d="M10.0598 9.6C7.34893 9.55804 5.27813 7.37884 5.25979 4.8C5.30457 2.11334 7.50051 0.01884 10.0598 0C12.773 0.1026 14.8405 2.1794 14.8598 4.8C14.8064 7.48878 12.6216 9.5818 10.0598 9.6ZM13.9406 10.5958C17.3525 10.6356 19.0825 13.6284 19.0982 16.6211V24H15.7535L15.7535 17.5149C15.6721 17.0666 15.3684 16.9146 15.0903 16.9585C14.8298 16.9997 14.5917 17.2125 14.5791 17.5149V24H5.28567V17.5149C5.21453 17.0882 4.94311 16.9242 4.67905 16.9407C4.39629 16.9585 4.12199 17.1834 4.11119 17.5149V24H0.817585V16.6211C0.797985 13.4316 2.81561 10.6194 6.00033 10.5958H13.9406Z" fill="black"/>
</svg>
